<svg width="50.000000" height="50.000000" viewBox="0 0 50 50" fill="none" xmlns="http://www.w3.org/2000/svg" xmlns:xlink="http://www.w3.org/1999/xlink">
	<desc>
			Created with Pixso.
	</desc>
	<defs/>
	<mask id="mask1_448" mask-type="alpha" maskUnits="userSpaceOnUse" x="0.000000" y="0.000000" width="50.000000" height="50.000000">
		<path id="Polygon 1" d="M32.1892 34.1506L17.8108 34.1506C13.9619 34.1506 11.5562 29.9839 13.4807 26.6506L20.6699 14.1987C22.5945 10.8654 27.4055 10.8654 29.3301 14.1987L36.5193 26.6506C38.4438 29.9839 36.0381 34.1506 32.1892 34.1506Z" fill="#F177AA" fill-opacity="1.000000" fill-rule="evenodd"/>
		<path id="Polygon 1" d="M17.8108 34.1506C13.9619 34.1506 11.5562 29.9839 13.4807 26.6506L20.6699 14.1987C22.5945 10.8654 27.4055 10.8654 29.3301 14.1987L36.5193 26.6506C38.4438 29.9839 36.0381 34.1506 32.1892 34.1506L17.8108 34.1506ZM17.8108 33.1506C14.7317 33.1506 12.8071 29.8173 14.3467 27.1506L21.5359 14.6987C23.0754 12.032 26.9246 12.032 28.4641 14.6987L35.6533 27.1506C37.1929 29.8173 35.2683 33.1506 32.1892 33.1506L17.8108 33.1506Z" fill="#000000" fill-opacity="1.000000" fill-rule="evenodd"/>
	</mask>
	<g mask="url(#mask1_448)">
		<path id="Polygon 2" d="M17.8108 34.1506C13.9619 34.1506 11.5562 29.9839 13.4807 26.6506L20.6699 14.1987C22.5945 10.8654 27.4055 10.8654 29.3301 14.1987L36.5193 26.6506C38.4438 29.9839 36.0381 34.1506 32.1892 34.1506L17.8108 34.1506ZM17.8108 32.1506C15.5015 32.1506 14.0581 29.6506 15.2129 27.6506L22.4019 15.1987C23.5566 13.1987 26.4434 13.1987 27.5981 15.1987L34.7871 27.6506C35.9419 29.6506 34.4985 32.1506 32.1892 32.1506L17.8108 32.1506Z" fill="#211F1F" fill-opacity="1.000000" fill-rule="evenodd"/>
	</g>
</svg>
