<svg width="50.000000" height="50.000000" viewBox="0 0 50 50" fill="none" xmlns="http://www.w3.org/2000/svg" xmlns:xlink="http://www.w3.org/1999/xlink">
	<desc>
			Created with Pixso.
	</desc>
	<defs/>
	<mask id="mask1_473" mask-type="alpha" maskUnits="userSpaceOnUse" x="0.000000" y="0.000000" width="50.000000" height="50.000000">
		<path id="Polygon 1" d="M32.1892 15.8494L17.8108 15.8494C13.9619 15.8494 11.5562 20.0161 13.4807 23.3494L20.6699 35.8013C22.5945 39.1346 27.4055 39.1346 29.3301 35.8013L36.5193 23.3494C38.4438 20.0161 36.0381 15.8494 32.1892 15.8494Z" fill="#F177AA" fill-opacity="1.000000" fill-rule="evenodd"/>
		<path id="Polygon 1" d="M17.8108 15.8494C13.9619 15.8494 11.5562 20.0161 13.4807 23.3494L20.6699 35.8013C22.5945 39.1346 27.4055 39.1346 29.3301 35.8013L36.5193 23.3494C38.4438 20.0161 36.0381 15.8494 32.1892 15.8494L17.8108 15.8494ZM17.8108 16.8494C14.7317 16.8494 12.8071 20.1827 14.3467 22.8494L21.5359 35.3013C23.0754 37.968 26.9246 37.968 28.4641 35.3013L35.6533 22.8494C37.1929 20.1827 35.2683 16.8494 32.1892 16.8494L17.8108 16.8494Z" fill="#000000" fill-opacity="1.000000" fill-rule="evenodd"/>
	</mask>
	<g mask="url(#mask1_473)">
		<path id="Polygon 2" d="M17.8108 15.8494C13.9619 15.8494 11.5562 20.0161 13.4807 23.3494L20.6699 35.8013C22.5945 39.1346 27.4055 39.1346 29.3301 35.8013L36.5193 23.3494C38.4438 20.0161 36.0381 15.8494 32.1892 15.8494L17.8108 15.8494ZM17.8108 16.8494C14.7317 16.8494 12.8071 20.1827 14.3467 22.8494L21.5359 35.3013C23.0754 37.968 26.9246 37.968 28.4641 35.3013L35.6533 22.8494C37.1929 20.1827 35.2683 16.8494 32.1892 16.8494L17.8108 16.8494Z" fill="#211F1F" fill-opacity="1.000000" fill-rule="evenodd"/>
	</g>
</svg>
