<svg width="18.000000" height="18.000000" viewBox="0 0 18 18" fill="none" xmlns="http://www.w3.org/2000/svg" xmlns:xlink="http://www.w3.org/1999/xlink">
	<desc>
			Created with Pixso.
	</desc>
	<defs/>
	<mask id="mask1_455" mask-type="alpha" maskUnits="userSpaceOnUse" x="0.000000" y="0.000061" width="18.000000" height="17.999939">
		<path id="Polygon 1" d="M13.3118 13.464L12.6475 14.0214C11.7471 14.777 10.6091 15.1911 9.43359 15.1911L8.56665 15.1911C7.39111 15.1911 6.25317 14.777 5.35254 14.0214L4.68848 13.464C3.78784 12.7084 3.18237 11.6597 2.97827 10.502L2.82764 9.64813C2.62354 8.49048 2.83398 7.29791 3.42163 6.27991L3.85522 5.52899C4.44287 4.51099 5.37061 3.7326 6.4751 3.33057L7.29004 3.034C8.39453 2.63196 9.60547 2.63196 10.7102 3.034L11.5249 3.33057C12.6296 3.7326 13.5571 4.51099 14.145 5.52899L14.5786 6.27991C15.1663 7.29791 15.3765 8.49048 15.1724 9.64813L15.022 10.502C14.8176 11.6597 14.2122 12.7084 13.3118 13.464Z" fill="#F177AA" fill-opacity="1.000000" fill-rule="evenodd"/>
		<path id="Polygon 1" d="M12.6475 14.0214C11.7471 14.777 10.6091 15.1911 9.43359 15.1911L8.56665 15.1911C7.39111 15.1911 6.25317 14.777 5.35254 14.0214L4.68848 13.464C3.78784 12.7084 3.18237 11.6597 2.97827 10.502L2.82764 9.64813C2.62354 8.49048 2.83398 7.29791 3.42163 6.27991L3.85522 5.52899C4.44287 4.51099 5.37061 3.7326 6.4751 3.33057L7.29004 3.034C8.39453 2.63196 9.60547 2.63196 10.7102 3.034L11.5249 3.33057C12.6296 3.7326 13.5571 4.51099 14.145 5.52899L14.5786 6.27991C15.1663 7.29791 15.3765 8.49048 15.1724 9.64813L15.022 10.502C14.8176 11.6597 14.2122 12.7084 13.3118 13.464L12.6475 14.0214ZM12.0049 13.2553C11.2844 13.8598 10.374 14.1911 9.43359 14.1911L8.56665 14.1911C7.62622 14.1911 6.71582 13.8598 5.99536 13.2553L5.3313 12.698C4.61084 12.0935 4.12646 11.2545 3.96313 10.3284L3.8125 9.47449C3.64917 8.5484 3.81738 7.5943 4.2876 6.77991L4.72119 6.02899C5.19141 5.2146 5.93359 4.59186 6.81714 4.27026L7.63208 3.97369C8.51562 3.65204 9.48438 3.65204 10.3682 3.97369L11.1829 4.27026C12.0667 4.59186 12.8088 5.2146 13.2791 6.02899L13.7124 6.77991C14.1826 7.5943 14.3508 8.5484 14.1875 9.47449L14.0371 10.3284C13.8738 11.2545 13.3894 12.0935 12.6689 12.698L12.0049 13.2553Z" fill="#000000" fill-opacity="1.000000" fill-rule="evenodd"/>
	</mask>
	<g mask="url(#mask1_455)">
		<path id="Polygon 2" d="M12.6475 14.0214C11.7471 14.777 10.6091 15.1911 9.43359 15.1911L8.56665 15.1911C7.39111 15.1911 6.25317 14.777 5.35254 14.0214L4.68848 13.464C3.78784 12.7084 3.18237 11.6597 2.97827 10.502L2.82764 9.64813C2.62354 8.49048 2.83398 7.29791 3.42163 6.27991L3.85522 5.52899C4.44287 4.51099 5.37061 3.7326 6.4751 3.33057L7.29004 3.034C8.39453 2.63196 9.60547 2.63196 10.7102 3.034L11.5249 3.33057C12.6296 3.7326 13.5571 4.51099 14.145 5.52899L14.5786 6.27991C15.1663 7.29791 15.3765 8.49048 15.1724 9.64813L15.022 10.502C14.8176 11.6597 14.2122 12.7084 13.3118 13.464L12.6475 14.0214ZM12.0049 13.2553C11.2844 13.8598 10.374 14.1911 9.43359 14.1911L8.56665 14.1911C7.62622 14.1911 6.71582 13.8598 5.99536 13.2553L5.3313 12.698C4.61084 12.0935 4.12646 11.2545 3.96313 10.3284L3.8125 9.47449C3.64917 8.5484 3.81738 7.5943 4.2876 6.77991L4.72119 6.02899C5.19141 5.2146 5.93359 4.59186 6.81714 4.27026L7.63208 3.97369C8.51562 3.65204 9.48438 3.65204 10.3682 3.97369L11.1829 4.27026C12.0667 4.59186 12.8088 5.2146 13.2791 6.02899L13.7124 6.77991C14.1826 7.5943 14.3508 8.5484 14.1875 9.47449L14.0371 10.3284C13.8738 11.2545 13.3894 12.0935 12.6689 12.698L12.0049 13.2553Z" fill="#211F1F" fill-opacity="1.000000" fill-rule="evenodd"/>
	</g>
</svg>
