<svg width="18.000000" height="17.999969" viewBox="0 0 18 18" fill="none" xmlns="http://www.w3.org/2000/svg" xmlns:xlink="http://www.w3.org/1999/xlink">
	<desc>
			Created with Pixso.
	</desc>
	<defs/>
	<mask id="mask1_551" mask-type="alpha" maskUnits="userSpaceOnUse" x="0.000000" y="0.000000" width="18.000000" height="17.999969">
		<path id="Polygon 1" d="M13.3116 13.464L12.6475 14.0213C11.7469 14.7769 10.609 15.1911 9.43347 15.1911L8.56641 15.1911C7.39087 15.1911 6.25293 14.7769 5.35254 14.0213L4.68823 13.464C3.78784 12.7084 3.18225 11.6597 2.97815 10.502L2.82764 9.64813C2.62354 8.49048 2.83374 7.29791 3.42151 6.27988L3.8551 5.52899C4.44287 4.51096 5.37048 3.73257 6.4751 3.33051L7.28992 3.03397C8.39453 2.63193 9.60547 2.63193 10.7101 3.03397L11.5248 3.33051C12.6294 3.73257 13.5571 4.51096 14.1449 5.52899L14.5784 6.27988C15.1661 7.29791 15.3765 8.49045 15.1722 9.6481L15.0217 10.502C14.8176 11.6597 14.2122 12.7084 13.3116 13.464Z" fill="#F177AA" fill-opacity="1.000000" fill-rule="evenodd"/>
		<path id="Polygon 1" d="" fill="#000000" fill-opacity="1.000000" fill-rule="evenodd"/>
	</mask>
	<g mask="url(#mask1_551)">
		<path id="Polygon 2" d="M13.3116 13.464L12.6475 14.0213C11.7469 14.7769 10.609 15.1911 9.43347 15.1911L8.56641 15.1911C7.39087 15.1911 6.25293 14.7769 5.35254 14.0213L4.68823 13.464C3.78784 12.7084 3.18225 11.6597 2.97815 10.502L2.82764 9.64813C2.62354 8.49048 2.83374 7.29791 3.42151 6.27988L3.8551 5.52899C4.44287 4.51096 5.37048 3.73257 6.4751 3.33051L7.28992 3.03397C8.39453 2.63193 9.60547 2.63193 10.7101 3.03397L11.5248 3.33051C12.6294 3.73257 13.5571 4.51096 14.1449 5.52899L14.5784 6.27988C15.1661 7.29791 15.3765 8.49045 15.1722 9.6481L15.0217 10.502C14.8176 11.6597 14.2122 12.7084 13.3116 13.464Z" fill="#F17CA9" fill-opacity="1.000000" fill-rule="evenodd"/>
		<path id="Polygon 2" d="" fill="#211F1F" fill-opacity="1.000000" fill-rule="evenodd"/>
	</g>
</svg>
