<svg width="20.567810" height="21.098267" viewBox="0 0 20.5678 21.0983" fill="none" xmlns="http://www.w3.org/2000/svg" xmlns:xlink="http://www.w3.org/1999/xlink">
	<desc>
			Created with Pixso.
	</desc>
	<defs/>
	<path id="Vector 2" d="M19.5678 19.0983L19.5678 2C19.5678 1.44775 19.1201 1 18.5678 1L2 1C1.44769 1 1 1.44775 1 2L1 19.0983C1 19.6506 1.44769 20.0983 2 20.0983L18.5678 20.0983C19.1201 20.0983 19.5678 19.6506 19.5678 19.0983Z" fill="#FFFFFF" fill-opacity="1.000000" fill-rule="nonzero"/>
	<path id="Vector 2" d="M19.5678 19.0983C19.5678 19.6506 19.1201 20.0983 18.5678 20.0983L2 20.0983C1.44769 20.0983 1 19.6506 1 19.0983L1 2C1 1.44775 1.44769 1 2 1L18.5678 1C19.1201 1 19.5678 1.44775 19.5678 2L19.5678 19.0983Z" stroke="#FFFFFF" stroke-opacity="1.000000" stroke-width="2.000000" stroke-linejoin="round"/>
</svg>
